<svg width="15" height="15" viewBox="0 0 20 20" fill="none" xmlns="http://www.w3.org/2000/svg" stroke-width="0.5" stroke="currentColor" >
<path d="M7.17338 12.1296C6.83557 12.1296 6.55093 12.013 6.31944 11.7799C6.08796 11.5465 5.97222 11.261 5.97222 10.9234C5.97222 10.5856 6.08881 10.3009 6.32199 10.0694C6.55532 9.83796 6.84082 9.72222 7.17847 9.72222C7.51628 9.72222 7.80093 9.83881 8.03241 10.072C8.26389 10.3053 8.37963 10.5908 8.37963 10.9285C8.37963 11.2663 8.26304 11.5509 8.02986 11.7824C7.79653 12.0139 7.51103 12.1296 7.17338 12.1296ZM12.8215 12.1296C12.4837 12.1296 12.1991 12.013 11.9676 11.7799C11.7361 11.5465 11.6204 11.261 11.6204 10.9234C11.6204 10.5856 11.737 10.3009 11.9701 10.0694C12.2035 9.83796 12.489 9.72222 12.8266 9.72222C13.1644 9.72222 13.4491 9.83881 13.6806 10.072C13.912 10.3053 14.0278 10.5908 14.0278 10.9285C14.0278 11.2663 13.9112 11.5509 13.678 11.7824C13.4447 12.0139 13.1592 12.1296 12.8215 12.1296ZM10 17.5463C12.0988 17.5463 13.8812 16.8133 15.3472 15.3472C16.8133 13.8812 17.5463 12.1011 17.5463 10.0069C17.5463 9.63194 17.5231 9.26312 17.4769 8.90046C17.4306 8.53781 17.3457 8.19444 17.2222 7.87037C16.8981 7.94753 16.5664 8.0054 16.2269 8.04398C15.8873 8.08256 15.5386 8.10185 15.1806 8.10185C13.7639 8.10185 12.419 7.79707 11.1458 7.1875C9.87269 6.57793 8.78086 5.72531 7.87037 4.62963C7.37654 5.84877 6.66281 6.91358 5.72917 7.82407C4.79552 8.73457 3.7037 9.4162 2.4537 9.86898V10.0095C2.4537 12.1019 3.18673 13.8812 4.65278 15.3472C6.11883 16.8133 7.90123 17.5463 10 17.5463ZM10 20C8.61667 20 7.31667 19.7375 6.1 19.2125C4.88333 18.6875 3.825 17.975 2.925 17.075C2.025 16.175 1.3125 15.1167 0.7875 13.9C0.2625 12.6833 0 11.3833 0 10C0 8.61667 0.2625 7.31667 0.7875 6.1C1.3125 4.88333 2.025 3.825 2.925 2.925C3.825 2.025 4.88333 1.3125 6.1 0.787501C7.31667 0.2625 8.61667 0 10 0C11.3833 0 12.6833 0.2625 13.9 0.787501C15.1167 1.3125 16.175 2.025 17.075 2.925C17.975 3.825 18.6875 4.88333 19.2125 6.1C19.7375 7.31667 20 8.61667 20 10C20 11.3833 19.7375 12.6833 19.2125 13.9C18.6875 15.1167 17.975 16.175 17.075 17.075C16.175 17.975 15.1167 18.6875 13.9 19.2125C12.6833 19.7375 11.3833 20 10 20ZM9.28241 2.5C9.99228 3.48765 10.8758 4.25926 11.9329 4.81482C12.99 5.37037 14.0741 5.64815 15.1852 5.64815C15.3086 5.64815 15.4514 5.64043 15.6134 5.625C15.7755 5.60957 15.9336 5.58642 16.088 5.55556C15.3627 4.58333 14.4792 3.8233 13.4375 3.27546C12.3958 2.72762 11.25 2.4537 10 2.4537H9.62963C9.52161 2.4537 9.40586 2.46914 9.28241 2.5ZM3.21759 6.66667C3.68056 6.35803 4.1088 5.97994 4.50232 5.53241C4.89583 5.08488 5.22377 4.5679 5.48611 3.98148C4.97685 4.33642 4.52546 4.7608 4.13194 5.25463C3.73843 5.74846 3.43364 6.21914 3.21759 6.66667Z" fill="white"/>
</svg>
