<svg width="20" height="20" viewBox="0 0 20 20" fill="none" xmlns="http://www.w3.org/2000/svg">
<path d="M3.125 0.375C1.6082 0.375 0.375 1.6082 0.375 3.125V16.875C0.375 18.3918 1.6082 19.625 3.125 19.625H16.875C18.3918 19.625 19.625 18.3918 19.625 16.875V3.125C19.625 1.6082 18.3918 0.375 16.875 0.375H3.125ZM8.96875 13.7812V11.0312H6.21875C5.64727 11.0312 5.1875 10.5715 5.1875 10C5.1875 9.42852 5.64727 8.96875 6.21875 8.96875H8.96875V6.21875C8.96875 5.64727 9.42852 5.1875 10 5.1875C10.5715 5.1875 11.0312 5.64727 11.0312 6.21875V8.96875H13.7812C14.3527 8.96875 14.8125 9.42852 14.8125 10C14.8125 10.5715 14.3527 11.0312 13.7812 11.0312H11.0312V13.7812C11.0312 14.3527 10.5715 14.8125 10 14.8125C9.42852 14.8125 8.96875 14.3527 8.96875 13.7812Z" fill="#047857"/>
</svg>
