<svg viewBox="0 0 24 24" fill="none" stroke-width="0.5" xmlns="http://www.w3.org/2000/svg" stroke="currentColor" class="size-6">
<path d="M10.885 18.7559C10.9517 18.7559 11.0183 18.7385 11.085 18.7038C11.1517 18.669 11.2017 18.6343 11.235 18.5996L19.435 10.0552C19.635 9.84683 19.7808 9.61238 19.8725 9.35188C19.9642 9.09138 20.01 8.83088 20.01 8.57039C20.01 8.29252 19.9642 8.02768 19.8725 7.77587C19.7808 7.52405 19.635 7.30263 19.435 7.1116L15.185 2.68313C15.0017 2.47473 14.7892 2.32277 14.5475 2.22726C14.3058 2.13174 14.0517 2.08398 13.785 2.08398C13.535 2.08398 13.285 2.13174 13.035 2.22726C12.785 2.32277 12.56 2.47473 12.36 2.68313L12.085 2.96968L13.935 4.92341C14.185 5.16654 14.3683 5.44441 14.485 5.75701C14.6017 6.0696 14.66 6.39957 14.66 6.7469C14.66 7.47629 14.4225 8.08846 13.9475 8.58341C13.4725 9.07836 12.885 9.32583 12.185 9.32583C11.8517 9.32583 11.5308 9.26505 11.2225 9.14348C10.9142 9.02192 10.6433 8.83957 10.41 8.59644L8.535 6.66875L4.16 11.2275C4.11 11.2796 4.0725 11.336 4.0475 11.3968C4.0225 11.4576 4.01 11.5227 4.01 11.5922C4.01 11.7311 4.06 11.857 4.16 11.9699C4.26 12.0828 4.37667 12.1392 4.51 12.1392C4.57667 12.1392 4.64333 12.1218 4.71 12.0871C4.77667 12.0524 4.82667 12.0176 4.86 11.9829L8.26 8.44014L9.66 9.89893L6.285 13.4417C6.235 13.4938 6.1975 13.5502 6.1725 13.611C6.1475 13.6718 6.135 13.7369 6.135 13.8064C6.135 13.9453 6.185 14.0669 6.285 14.1711C6.385 14.2753 6.50167 14.3274 6.635 14.3274C6.70167 14.3274 6.76833 14.31 6.835 14.2753C6.90167 14.2406 6.95167 14.2058 6.985 14.1711L10.385 10.6544L11.785 12.1132L8.41 15.6559C8.36 15.6907 8.3225 15.7428 8.2975 15.8122C8.2725 15.8817 8.26 15.9512 8.26 16.0206C8.26 16.1596 8.31 16.2811 8.41 16.3853C8.51 16.4895 8.62667 16.5416 8.76 16.5416C8.82667 16.5416 8.88917 16.5286 8.9475 16.5026C9.00583 16.4765 9.06 16.4374 9.11 16.3853L12.51 12.8686L13.91 14.3274L10.51 17.8702C10.46 17.9223 10.4225 17.9787 10.3975 18.0395C10.3725 18.1003 10.36 18.1654 10.36 18.2349C10.36 18.3738 10.4142 18.4954 10.5225 18.5996C10.6308 18.7038 10.7517 18.7559 10.885 18.7559ZM10.86 20.8398C10.2433 20.8398 9.6975 20.6271 9.2225 20.2016C8.7475 19.7761 8.46833 19.2421 8.385 18.5996C7.81833 18.5127 7.34333 18.2696 6.96 17.8702C6.57667 17.4707 6.34333 16.9758 6.26 16.3853C5.69333 16.2985 5.2225 16.051 4.8475 15.6429C4.4725 15.2348 4.24333 14.7442 4.16 14.1711C3.52667 14.0843 3.01 13.7977 2.61 13.3115C2.21 12.8252 2.01 12.2521 2.01 11.5922C2.01 11.2448 2.0725 10.9105 2.1975 10.5892C2.3225 10.268 2.50167 9.98576 2.735 9.74263L8.535 3.72512L11.81 7.13765C11.8433 7.18975 11.8933 7.22882 11.96 7.25487C12.0267 7.28092 12.0933 7.29395 12.16 7.29395C12.31 7.29395 12.435 7.24619 12.535 7.15067C12.635 7.05516 12.685 6.92925 12.685 6.77295C12.685 6.70348 12.6725 6.63402 12.6475 6.56455C12.6225 6.49508 12.585 6.44299 12.535 6.40825L8.96 2.68313C8.77667 2.47473 8.56417 2.32277 8.3225 2.22726C8.08083 2.13174 7.82667 2.08398 7.56 2.08398C7.31 2.08398 7.06 2.13174 6.81 2.22726C6.56 2.32277 6.335 2.47473 6.135 2.68313L2.61 6.3822C2.46 6.5385 2.335 6.72085 2.235 6.92925C2.135 7.13765 2.06833 7.34605 2.035 7.55444C2.00167 7.76284 2.00167 7.97558 2.035 8.19266C2.06833 8.40975 2.135 8.6138 2.235 8.80483L0.785 10.3157C0.501667 9.91629 0.293333 9.47779 0.16 9.00021C0.0266667 8.52263 -0.0233333 8.04071 0.01 7.55444C0.0433333 7.06818 0.16 6.59494 0.36 6.13473C0.56 5.67452 0.835 5.26206 1.185 4.89736L4.71 1.22434C5.11 0.824911 5.55583 0.520996 6.0475 0.312598C6.53917 0.104199 7.04333 0 7.56 0C8.07667 0 8.58083 0.104199 9.0725 0.312598C9.56417 0.520996 10.0017 0.824911 10.385 1.22434L10.66 1.51089L10.935 1.22434C11.335 0.824911 11.7808 0.520996 12.2725 0.312598C12.7642 0.104199 13.2683 0 13.785 0C14.3017 0 14.8058 0.104199 15.2975 0.312598C15.7892 0.520996 16.2267 0.824911 16.61 1.22434L20.835 5.62676C21.2183 6.02619 21.51 6.4864 21.71 7.0074C21.91 7.52839 22.01 8.05807 22.01 8.59644C22.01 9.1348 21.91 9.66014 21.71 10.1724C21.51 10.6848 21.2183 11.1406 20.835 11.5401L12.635 20.0583C12.4017 20.3015 12.1308 20.4925 11.8225 20.6314C11.5142 20.7704 11.1933 20.8398 10.86 20.8398Z" fill="white"/>
</svg>
