<svg  viewBox="0 0 24 24" fill="none" class="size-6" stroke-width="0.5" stroke="currentColor" xmlns="http://www.w3.org/2000/svg">
<path d="M16 9.37793V7.29395H20V9.37793H16ZM17.2 16.6719L14 14.1711L15.2 12.5039L18.4 15.0047L17.2 16.6719ZM15.2 4.16797L14 2.50078L17.2 0L18.4 1.66719L15.2 4.16797ZM3 15.6299V11.4619H2C1.45 11.4619 0.979167 11.2579 0.5875 10.8497C0.195833 10.4416 0 9.95103 0 9.37793V7.29395C0 6.72085 0.195833 6.23025 0.5875 5.82213C0.979167 5.41402 1.45 5.20996 2 5.20996H6L11 2.08398V14.5879L6 11.4619H5V15.6299H3ZM9 10.8888V5.78306L6.55 7.29395H2V9.37793H6.55L9 10.8888ZM12 11.8266V4.84526C12.45 5.26206 12.8125 5.77003 13.0875 6.36918C13.3625 6.96832 13.5 7.62391 13.5 8.33594C13.5 9.04797 13.3625 9.70355 13.0875 10.3027C12.8125 10.9018 12.45 11.4098 12 11.8266Z" fill="white"/>
</svg>
