<svg width="54" height="55" viewBox="0 0 54 55" fill="none" xmlns="http://www.w3.org/2000/svg">
<path d="M23.1136 39.9583L41.8626 20.8646L38.1394 17.0729L23.1136 32.375L15.5342 24.6562L11.811 28.4479L23.1136 39.9583ZM26.8368 54.5833C23.1579 54.5833 19.7006 53.8724 16.465 52.4505C13.2293 51.0286 10.4148 49.099 8.02127 46.6615C5.62778 44.224 3.73294 41.3576 2.33674 38.0625C0.940533 34.7674 0.242432 31.2465 0.242432 27.5C0.242432 23.7535 0.940533 20.2326 2.33674 16.9375C3.73294 13.6424 5.62778 10.776 8.02127 8.33853C10.4148 5.90103 13.2293 3.97134 16.465 2.54947C19.7006 1.12759 23.1579 0.416656 26.8368 0.416656C30.5156 0.416656 33.9729 1.12759 37.2085 2.54947C40.4442 3.97134 43.2588 5.90103 45.6522 8.33853C48.0457 10.776 49.9406 13.6424 51.3368 16.9375C52.733 20.2326 53.4311 23.7535 53.4311 27.5C53.4311 31.2465 52.733 34.7674 51.3368 38.0625C49.9406 41.3576 48.0457 44.224 45.6522 46.6615C43.2588 49.099 40.4442 51.0286 37.2085 52.4505C33.9729 53.8724 30.5156 54.5833 26.8368 54.5833ZM26.8368 49.1667C32.7762 49.1667 37.8069 47.0677 41.929 42.8698C46.0512 38.6719 48.1122 33.5486 48.1122 27.5C48.1122 21.4514 46.0512 16.3281 41.929 12.1302C37.8069 7.93228 32.7762 5.83332 26.8368 5.83332C20.8974 5.83332 15.8666 7.93228 11.7445 12.1302C7.62236 16.3281 5.5613 21.4514 5.5613 27.5C5.5613 33.5486 7.62236 38.6719 11.7445 42.8698C15.8666 47.0677 20.8974 49.1667 26.8368 49.1667Z" fill="#99CC33"/>
</svg>
