<svg width="55" height="55" viewBox="0 0 55 55" fill="#C61C1A" xmlns="http://www.w3.org/2000/svg">
  <path d="M17.8822 41.0417L27.4561 31.2917L37.0301 41.0417L40.7533 37.25L31.1794 27.5L40.7533 17.75L37.0301 13.9583L27.4561 23.7083L17.8822 13.9583L14.159 17.75L23.7329 27.5L14.159 37.25L17.8822 41.0417ZM27.4561 54.5833C23.7773 54.5833 20.32 53.8724 17.0844 52.4505C13.8487 51.0286 11.0341 49.0989 8.64066 46.6614C6.24717 44.2239 4.35232 41.3576 2.95612 38.0625C1.55992 34.7674 0.861816 31.2465 0.861816 27.5C0.861816 23.7535 1.55992 20.2326 2.95612 16.9375C4.35232 13.6424 6.24717 10.776 8.64066 8.33853C11.0341 5.90103 13.8487 3.97134 17.0844 2.54947C20.32 1.12759 23.7773 0.416656 27.4561 0.416656C31.135 0.416656 34.5923 1.12759 37.8279 2.54947C41.0636 3.97134 43.8781 5.90103 46.2716 8.33853C48.6651 10.776 50.56 13.6424 51.9562 16.9375C53.3524 20.2326 54.0505 23.7535 54.0505 27.5C54.0505 31.2465 53.3524 34.7674 51.9562 38.0625C50.56 41.3576 48.6651 44.2239 46.2716 46.6614C43.8781 49.0989 41.0636 51.0286 37.8279 52.4505C34.5923 53.8724 31.135 54.5833 27.4561 54.5833ZM27.4561 49.1667C33.3955 49.1667 38.4263 47.0677 42.5484 42.8698C46.6705 38.6719 48.7316 33.5486 48.7316 27.5C48.7316 21.4514 46.6705 16.3281 42.5484 12.1302C38.4263 7.93228 33.3955 5.83332 27.4561 5.83332C21.5167 5.83332 16.486 7.93228 12.3639 12.1302C8.24174 16.3281 6.18068 21.4514 6.18068 27.5C6.18068 33.5486 8.24174 38.6719 12.3639 42.8698C16.486 47.0677 21.5167 49.1667 27.4561 49.1667Z" fill="#FF0000"/>
</svg>
