<svg width="54" height="55" viewBox="0 0 54 55" fill="none" xmlns="http://www.w3.org/2000/svg">
<path d="M26.8036 41.0417C27.5571 41.0417 28.1887 40.7821 28.6984 40.263C29.2081 39.7439 29.463 39.1007 29.463 38.3333C29.463 37.566 29.2081 36.9227 28.6984 36.4036C28.1887 35.8845 27.5571 35.625 26.8036 35.625C26.0501 35.625 25.4184 35.8845 24.9087 36.4036C24.399 36.9227 24.1441 37.566 24.1441 38.3333C24.1441 39.1007 24.399 39.7439 24.9087 40.263C25.4184 40.7821 26.0501 41.0417 26.8036 41.0417ZM24.1441 30.2083H29.463V13.9583H24.1441V30.2083ZM26.8036 54.5833C23.1247 54.5833 19.6674 53.8724 16.4318 52.4505C13.1961 51.0286 10.3816 49.099 7.98807 46.6615C5.59458 44.224 3.69973 41.3576 2.30353 38.0625C0.90733 34.7674 0.209229 31.2465 0.209229 27.5C0.209229 23.7535 0.90733 20.2326 2.30353 16.9375C3.69973 13.6424 5.59458 10.776 7.98807 8.33853C10.3816 5.90103 13.1961 3.97134 16.4318 2.54947C19.6674 1.12759 23.1247 0.416656 26.8036 0.416656C30.4824 0.416656 33.9397 1.12759 37.1753 2.54947C40.411 3.97134 43.2256 5.90103 45.619 8.33853C48.0125 10.776 49.9074 13.6424 51.3036 16.9375C52.6998 20.2326 53.3979 23.7535 53.3979 27.5C53.3979 31.2465 52.6998 34.7674 51.3036 38.0625C49.9074 41.3576 48.0125 44.224 45.619 46.6615C43.2256 49.099 40.411 51.0286 37.1753 52.4505C33.9397 53.8724 30.4824 54.5833 26.8036 54.5833ZM26.8036 49.1667C32.743 49.1667 37.7737 47.0677 41.8958 42.8698C46.018 38.6719 48.079 33.5486 48.079 27.5C48.079 21.4514 46.018 16.3281 41.8958 12.1302C37.7737 7.93228 32.743 5.83332 26.8036 5.83332C20.8642 5.83332 15.8334 7.93228 11.7113 12.1302C7.58916 16.3281 5.52809 21.4514 5.52809 27.5C5.52809 33.5486 7.58916 38.6719 11.7113 42.8698C15.8334 47.0677 20.8642 49.1667 26.8036 49.1667Z" fill="#FFA412"/>
</svg>
