<svg width="31" height="30" viewBox="0 0 31 30" fill="none" xmlns="http://www.w3.org/2000/svg">
<path d="M3.92036 26.6667H6.25248L22.25 10.375L19.9179 8L3.92036 24.2917V26.6667ZM0.647217 30V22.9167L22.25 0.958333C22.5773 0.652778 22.9387 0.416667 23.3342 0.25C23.7297 0.0833333 24.1457 0 24.5821 0C25.0185 0 25.4413 0.0833333 25.8505 0.25C26.2596 0.416667 26.6142 0.666667 26.9142 1L29.1645 3.33333C29.4918 3.63889 29.7305 4 29.8805 4.41667C30.0305 4.83333 30.1055 5.25 30.1055 5.66667C30.1055 6.11111 30.0305 6.53472 29.8805 6.9375C29.7305 7.34028 29.4918 7.70833 29.1645 8.04167L7.60266 30H0.647217ZM21.0635 9.20833L19.9179 8L22.25 10.375L21.0635 9.20833Z" fill="#92867C"/>
</svg>
