<svg viewBox="0 0 24 24" fill="none" stroke-width="0.5" xmlns="http://www.w3.org/2000/svg" stroke="currentColor" class="size-6">
<path d="M2 20.8398C1.45 20.8398 0.979167 20.6358 0.5875 20.2277C0.195833 19.8196 0 19.329 0 18.7559V4.16797C0 3.59487 0.195833 3.10427 0.5875 2.69615C0.979167 2.28804 1.45 2.08398 2 2.08398H6.2C6.41667 1.45879 6.77917 0.95516 7.2875 0.573096C7.79583 0.191032 8.36667 0 9 0C9.63333 0 10.2042 0.191032 10.7125 0.573096C11.2208 0.95516 11.5833 1.45879 11.8 2.08398H16C16.55 2.08398 17.0208 2.28804 17.4125 2.69615C17.8042 3.10427 18 3.59487 18 4.16797V18.7559C18 19.329 17.8042 19.8196 17.4125 20.2277C17.0208 20.6358 16.55 20.8398 16 20.8398H2ZM2 18.7559H16V4.16797H2V18.7559ZM4 16.6719H11V14.5879H4V16.6719ZM4 12.5039H14V10.4199H4V12.5039ZM4 8.33594H14V6.25195H4V8.33594ZM9 3.38647C9.21667 3.38647 9.39583 3.31267 9.5375 3.16505C9.67917 3.01744 9.75 2.83075 9.75 2.60498C9.75 2.37922 9.67917 2.19253 9.5375 2.04491C9.39583 1.89729 9.21667 1.82349 9 1.82349C8.78333 1.82349 8.60417 1.89729 8.4625 2.04491C8.32083 2.19253 8.25 2.37922 8.25 2.60498C8.25 2.83075 8.32083 3.01744 8.4625 3.16505C8.60417 3.31267 8.78333 3.38647 9 3.38647Z" fill="white"/>
</svg>
